HIERARCHY
ROOT joint_Root
{
	OFFSET 0.0 0.0 0.0
	CHANNELS 6 Xposition Yposition Zposition Zrotation Xrotation Yrotation 
	JOINT Hips
	{
		OFFSET 4.5925 91.4895 -427.239
		CHANNELS 6 Xposition Yposition Zposition Zrotation Xrotation Yrotation 
		JOINT Spine
		{
			OFFSET 15.7357 0.0 0.0
			CHANNELS 6 Xposition Yposition Zposition Zrotation Xrotation Yrotation 
			JOINT Chest
			{
				OFFSET 8.98455 -0.406207 0.0
				CHANNELS 6 Xposition Yposition Zposition Zrotation Xrotation Yrotation 
				JOINT Neck
				{
					OFFSET 16.3773 0.0 0.0
					CHANNELS 6 Xposition Yposition Zposition Zrotation Xrotation Yrotation 
					JOINT Head
					{
						OFFSET 6.45672 0.0 0.0
						CHANNELS 6 Xposition Yposition Zposition Zrotation Xrotation Yrotation 
						End Site
						{
							OFFSET 0.0 0.0 0.0
						}
					}
				}
				JOINT Shoulder_L
				{
					OFFSET 12.9942 -0.242716 4.98039
					CHANNELS 6 Xposition Yposition Zposition Zrotation Xrotation Yrotation 
					JOINT UpperArm_L
					{
						OFFSET 5.34809 0.0 0.0
						CHANNELS 6 Xposition Yposition Zposition Zrotation Xrotation Yrotation 
						JOINT LowerArm_L
						{
							OFFSET 24.3286 1.87007e-05 0.0
							CHANNELS 6 Xposition Yposition Zposition Zrotation Xrotation Yrotation 
							JOINT Hand_L
							{
								OFFSET 22.2916 0.0 0.0
								CHANNELS 6 Xposition Yposition Zposition Zrotation Xrotation Yrotation 
								End Site
								{
									OFFSET 0.0 0.0 0.0
								}
							}
						}
					}
				}
				JOINT Shoulder_R
				{
					OFFSET 12.9945 -0.242716 -4.98039
					CHANNELS 6 Xposition Yposition Zposition Zrotation Xrotation Yrotation 
					JOINT UpperArm_R
					{
						OFFSET -5.34813 0.0 0.0
						CHANNELS 6 Xposition Yposition Zposition Zrotation Xrotation Yrotation 
						JOINT LowerArm_R
						{
							OFFSET -24.3289 0.000322201 0.0
							CHANNELS 6 Xposition Yposition Zposition Zrotation Xrotation Yrotation 
							JOINT Hand_R
							{
								OFFSET -22.2915 -0.000108084 0.0
								CHANNELS 6 Xposition Yposition Zposition Zrotation Xrotation Yrotation 
								End Site
								{
									OFFSET 0.0 0.0 0.0
								}
							}
						}
					}
				}
			}
		}
		JOINT UpperLeg_L
		{
			OFFSET -2.19248 -6.46944 0.0
			CHANNELS 6 Xposition Yposition Zposition Zrotation Xrotation Yrotation 
			JOINT LowerLeg_L
			{
				OFFSET 39.0811 0.0 -1.23785e-05
				CHANNELS 6 Xposition Yposition Zposition Zrotation Xrotation Yrotation 
				JOINT Foot_L
				{
					OFFSET 40.9854 0.0 -1.26872e-05
					CHANNELS 6 Xposition Yposition Zposition Zrotation Xrotation Yrotation 
					JOINT Toes_L
					{
						OFFSET 11.7543 0.0 0.0
						CHANNELS 6 Xposition Yposition Zposition Zrotation Xrotation Yrotation 
						End Site
						{
							OFFSET 0.0 0.0 0.0
						}
					}
				}
			}
		}
		JOINT UpperLeg_R
		{
			OFFSET -2.19251 6.46944 0.0
			CHANNELS 6 Xposition Yposition Zposition Zrotation Xrotation Yrotation 
			JOINT LowerLeg_R
			{
				OFFSET -39.0811 -0.00228153 -0.0401928
				CHANNELS 6 Xposition Yposition Zposition Zrotation Xrotation Yrotation 
				JOINT Foot_R
				{
					OFFSET -40.9854 0.0 0.0
					CHANNELS 6 Xposition Yposition Zposition Zrotation Xrotation Yrotation 
					JOINT Toes_R
					{
						OFFSET -11.7543 0.0 0.0
						CHANNELS 6 Xposition Yposition Zposition Zrotation Xrotation Yrotation 
						End Site
						{
							OFFSET 0.0 0.0 0.0
						}
					}
				}
			}
		}
	}
}
MOTION
Frames:	7
Frame Time:	0.0333333
0.000000 0.000000 0.000000 0.000000 0.000000 -0.000000 138.680000 87.704600 127.751000 102.452000 -19.012900 3.003000 15.735700 0.000005 -0.000001 37.459400 81.972400 -37.914500 8.984550 -0.406207 -0.000000 1.996980 -12.713100 -0.689676 16.377300 -0.000001 -0.000001 0.255803 -19.457600 2.590500 6.456720 -0.000001 -0.000000 -2.538740 -20.819700 7.031010 12.994200 -0.242716 4.980390 -88.998600 -3.453160 -73.823800 5.348090 -0.000007 -0.000001 -42.401000 38.648500 -61.061000 24.328600 0.000019 0.000005 10.368500 -4.472230 -113.083000 22.291600 -0.000001 0.000005 6.583050 5.448300 -4.578810 12.994500 -0.242716 -4.980390 90.171500 -0.500056 -71.049000 -5.348130 -0.000001 -0.000004 -70.061800 25.428600 32.530600 -24.328900 0.000322 -0.000009 -11.933000 -3.760560 -72.767800 -22.291500 -0.000108 -0.000004 13.297300 5.604710 -11.617000 -2.192480 -6.469440 -0.000000 -179.976000 -14.469700 6.244700 39.081100 -0.000007 -0.000012 -0.108533 0.149890 35.908100 40.985400 -0.000006 -0.000013 -9.392240 11.740000 -54.611300 11.754300 -0.000000 0.000003 -0.247326 -0.718490 -47.767700 -2.192510 6.469440 -0.000001 -163.333000 29.472600 149.245000 -39.081100 -0.002282 -0.040193 -0.039417 0.096762 23.826800 -40.985400 0.000008 0.000006 16.835300 -6.767400 -58.653700 -11.754300 -0.000006 -0.000006 -0.022553 -0.181041 -23.974900
0.000000 0.000000 0.000000 0.000000 0.000000 -0.000000 136.963000 85.763200 132.971000 103.960000 -19.121900 5.078760 15.735700 0.000005 -0.000001 39.536500 82.097900 -40.061700 8.984550 -0.406207 -0.000000 2.287730 -12.154300 -0.808747 16.377300 -0.000001 -0.000001 0.346356 -19.737500 2.000730 6.456720 -0.000001 -0.000000 -2.804380 -21.429800 6.140110 12.994200 -0.242716 4.980390 -90.005000 0.017848 -74.418800 5.348090 -0.000007 -0.000001 -43.883500 44.748100 -54.067900 24.328600 0.000019 0.000005 10.938900 -2.601150 -103.224000 22.291600 -0.000001 0.000005 8.710930 5.479980 -5.739360 12.994500 -0.242716 -4.980390 88.653800 3.756560 -70.275600 -5.348130 -0.000001 -0.000004 -68.610800 26.636600 27.379600 -24.328900 0.000322 -0.000009 -17.371200 -6.771460 -69.350700 -22.291500 -0.000108 -0.000004 13.758900 5.610260 -11.966400 -2.192480 -6.469440 -0.000000 -177.542000 -16.943200 6.372680 39.081100 -0.000007 -0.000012 -0.018534 0.019137 44.086900 40.985400 -0.000006 -0.000013 -12.059000 16.913900 -46.374900 11.754300 -0.000000 0.000003 -0.355832 -0.856597 -54.893600 -2.192510 6.469440 -0.000001 -165.537000 28.422600 150.534000 -39.081100 -0.002282 -0.040193 -0.182725 0.304266 31.441300 -40.985400 0.000008 0.000006 30.593600 -11.782300 -63.292100 -11.754300 -0.000006 -0.000006 -0.017089 -0.150593 -22.720800
0.000000 0.000000 0.000000 0.000000 0.000000 -0.000000 134.544000 84.084400 137.451000 103.842000 -22.079000 7.081200 15.735700 0.000005 -0.000001 48.813900 82.542000 -48.897700 8.984550 -0.406207 -0.000000 3.495860 -9.807210 0.132259 16.377300 -0.000001 -0.000001 0.147614 -19.543300 1.752520 6.456720 -0.000001 -0.000000 -3.180270 -22.707100 6.053730 12.994200 -0.242716 4.980390 -91.015800 3.405700 -73.388400 5.348090 -0.000007 -0.000001 -47.914800 49.089900 -45.707500 24.328600 0.000019 0.000005 14.537200 0.636031 -87.592200 22.291600 -0.000001 0.000005 11.431100 5.492460 -6.225850 12.994500 -0.242716 -4.980390 86.642500 9.117710 -69.682900 -5.348130 -0.000001 -0.000004 -64.190100 33.285800 19.219200 -24.328900 0.000322 -0.000009 -17.833800 -7.365360 -68.272300 -22.291500 -0.000108 -0.000004 17.554400 5.620360 -12.624000 -2.192480 -6.469440 -0.000000 -173.819000 -18.454000 2.893700 39.081100 -0.000007 -0.000012 0.195277 -0.133556 55.629900 40.985400 -0.000006 -0.000013 -14.874500 18.645200 -32.950100 11.754300 -0.000000 0.000003 -0.181850 -0.614082 -42.769300 -2.192510 6.469440 -0.000001 -167.868000 20.165400 152.798000 -39.081100 -0.002282 -0.040193 -0.168074 0.199499 40.659600 -40.985400 0.000008 0.000006 29.003300 -19.866700 -67.288900 -11.754300 -0.000006 -0.000006 -0.009817 -0.102265 -20.739500
0.000000 0.000000 0.000000 0.000000 0.000000 -0.000000 131.885000 82.898600 140.675000 102.550000 -27.803400 7.961230 15.735700 0.000005 -0.000001 58.413900 82.857500 -57.905900 8.984550 -0.406207 -0.000000 4.467050 -7.484130 1.308100 16.377300 -0.000001 -0.000001 1.022950 -18.439800 2.635160 6.456720 -0.000001 -0.000000 -3.221450 -22.697100 6.040890 12.994200 -0.242716 4.980390 -90.984100 3.021120 -71.947400 5.348090 -0.000007 -0.000001 -58.137200 48.999700 -32.777000 24.328600 0.000019 0.000005 19.812500 8.580950 -67.542100 22.291600 -0.000001 0.000005 14.085400 5.505640 -6.755060 12.994500 -0.242716 -4.980390 85.994500 11.135000 -70.069800 -5.348130 -0.000001 -0.000004 -58.777900 43.189400 4.531760 -24.328900 0.000322 -0.000009 -14.644000 -4.898370 -71.924000 -22.291500 -0.000108 -0.000004 19.570200 5.637510 -13.934400 -2.192480 -6.469440 -0.000000 -172.792000 -16.933000 -4.525830 39.081100 -0.000007 -0.000012 0.223319 -0.090510 67.936400 40.985400 -0.000006 -0.000013 -10.818300 8.493450 -25.928200 11.754300 -0.000000 0.000003 -0.008028 -0.088267 -20.171100 -2.192510 6.469440 -0.000001 -166.373000 17.941000 156.724000 -39.081100 -0.002282 -0.040193 -0.128740 0.138378 43.650400 -40.985400 0.000008 0.000006 28.873700 -19.582900 -72.546200 -11.754300 -0.000006 -0.000006 -0.010420 -0.106750 -20.922900
0.000000 0.000000 0.000000 0.000000 0.000000 -0.000000 129.399000 83.071500 143.193000 103.065000 -34.133400 8.779910 15.735700 0.000005 -0.000001 66.554200 83.161100 -66.200700 8.984550 -0.406207 -0.000000 4.816750 -5.440880 0.935674 16.377300 -0.000001 -0.000001 1.475150 -17.682600 3.836360 6.456720 -0.000001 -0.000000 -1.583830 -21.616500 5.517860 12.994200 -0.242716 4.980390 -91.111800 3.504100 -72.383700 5.348090 -0.000007 -0.000001 -62.408200 44.818400 -19.323500 24.328600 0.000019 0.000005 20.157000 14.718800 -55.314300 22.291600 -0.000001 0.000005 10.433400 5.515970 -7.188040 12.994500 -0.242716 -4.980390 86.653700 10.645300 -72.438700 -5.348130 -0.000001 -0.000004 -54.347200 47.061100 -11.858500 -24.328900 0.000322 -0.000009 -8.604050 -1.420820 -80.715600 -22.291500 -0.000108 -0.000004 19.641200 5.649800 -14.993800 -2.192480 -6.469440 -0.000000 -175.959000 -12.393700 -13.232100 39.081100 -0.000007 -0.000012 -0.087218 0.018426 78.075600 40.985400 -0.000006 -0.000013 1.482940 -7.582360 -34.087500 11.754300 -0.000000 0.000003 -0.008731 -0.093910 -20.401600 -2.192510 6.469440 -0.000001 -166.867000 18.100800 161.995000 -39.081100 -0.002282 -0.040193 0.005824 -0.002844 41.887500 -40.985400 0.000008 0.000006 29.859600 -14.819500 -76.555900 -11.754300 -0.000006 -0.000006 -0.009273 -0.098122 -20.570100
0.000000 0.000000 0.000000 0.000000 0.000000 -0.000000 126.716000 83.968800 145.362000 104.562000 -42.460500 9.500510 15.735700 0.000005 -0.000001 77.042000 83.516700 -77.466400 8.984550 -0.406207 -0.000000 4.864710 -2.891200 -0.725085 16.377300 -0.000001 -0.000001 1.759270 -16.360800 5.008080 6.456720 -0.000001 -0.000000 -0.157764 -20.256400 6.606610 12.994200 -0.242716 4.980390 -91.466700 4.383490 -71.480900 5.348090 -0.000007 -0.000001 -58.521500 44.686300 -6.298670 24.328600 0.000019 0.000005 20.088100 13.461900 -57.530100 22.291600 -0.000001 0.000005 8.609010 5.539030 -8.196630 12.994500 -0.242716 -4.980390 87.620500 9.076870 -75.246400 -5.348130 -0.000001 -0.000004 -50.248100 48.614400 -29.485100 -24.328900 0.000322 -0.000009 -7.975090 -0.073954 -89.462000 -22.291500 -0.000108 -0.000004 21.132400 5.644250 -14.493900 -2.192480 -6.469440 -0.000000 -178.306000 -7.560950 -20.430100 39.081100 -0.000007 -0.000012 -0.368322 0.048864 82.444100 40.985400 -0.000006 -0.000013 13.205100 -12.587500 -40.517700 11.754300 -0.000000 0.000003 -0.007806 -0.086454 -20.097100 -2.192510 6.469440 -0.000001 -168.585000 17.639200 167.577000 -39.081100 -0.002282 -0.040193 0.048213 -0.057222 38.138500 -40.985400 0.000008 0.000006 30.146100 -6.856570 -79.036900 -11.754300 -0.000006 -0.000006 -0.008635 -0.093136 -20.366300
0.000000 0.000000 0.000000 0.000000 0.000000 -0.000000 124.207000 85.464800 147.319000 108.028000 -52.339700 10.467300 15.735700 0.000005 -0.000001 92.759100 84.184200 -94.497700 8.984550 -0.406207 -0.000000 3.864020 0.618265 -3.494330 16.377300 -0.000001 -0.000001 2.352380 -14.433400 5.497210 6.456720 -0.000001 -0.000000 0.447727 -19.993700 8.610130 12.994200 -0.242716 4.980390 -91.185000 3.053360 -68.763700 5.348090 -0.000007 -0.000001 -56.690400 47.932300 6.133520 24.328600 0.000019 0.000005 11.918900 6.644140 -61.291800 22.291600 -0.000001 0.000005 8.220570 5.541460 -8.304080 12.994500 -0.242716 -4.980390 88.606200 6.244770 -77.398400 -5.348130 -0.000001 -0.000004 -48.336400 48.147700 -45.100300 -24.328900 0.000322 -0.000009 -8.974570 0.973409 -96.138900 -22.291500 -0.000108 -0.000004 21.626100 5.634260 -13.670700 -2.192480 -6.469440 -0.000000 -179.179000 -4.394480 -27.465300 39.081100 -0.000007 -0.000012 -0.351279 0.046845 82.405400 40.985400 -0.000006 -0.000013 14.416800 -13.231100 -46.948700 11.754300 -0.000000 0.000003 -0.007712 -0.085672 -20.065100 -2.192510 6.469440 -0.000001 -170.961000 13.419000 172.144000 -39.081100 -0.002282 -0.040193 0.063557 -0.095334 32.296900 -40.985400 0.000008 0.000006 30.406700 0.523792 -78.371900 -11.754300 -0.000006 -0.000006 -0.010568 -0.107838 -20.967500
